<svg class="c-logo__svg" width="111" height="19" viewBox="0 0 111 19" fill="none" xmlns="http://www.w3.org/2000/svg">
  <g class="c-logo__sign" clip-path="url(#clip0_10064_1347)">
    <path class="c-logo__letter" d="M30.9122 3.87653L27.5882 10.4903L24.2591 3.87653H22.3179L23.2259 5.68076L27.5882 14.3527L32.8533 3.87653H30.9122Z" fill="#fff" />
    <path class="c-logo__letter" d="M38.275 3.87653C37.2429 3.87653 36.234 4.18684 35.3759 4.76822C34.5178 5.34961 33.849 6.17595 33.454 7.14275C33.0591 8.10956 32.9557 9.1734 33.1571 10.1998C33.3584 11.2261 33.8554 12.1689 34.5852 12.9088C35.315 13.6488 36.2447 14.1527 37.2569 14.3569C38.2692 14.561 39.3184 14.4562 40.2719 14.0558C41.2253 13.6553 42.0403 12.9772 42.6137 12.1071C43.187 11.237 43.4931 10.214 43.4931 9.16753C43.4931 7.76427 42.9433 6.41848 41.9647 5.42623C40.9861 4.43397 39.6589 3.87653 38.275 3.87653ZM38.275 12.6913C37.5864 12.6924 36.9129 12.4863 36.3399 12.0992C35.7668 11.712 35.3199 11.1612 35.0557 10.5164C34.7915 9.87167 34.7218 9.16192 34.8555 8.477C34.9892 7.79207 35.3203 7.16275 35.8068 6.66867C36.2934 6.17458 36.9135 5.83794 37.5888 5.70134C38.2641 5.56474 38.9642 5.63432 39.6005 5.90127C40.2367 6.16823 40.7806 6.62056 41.1633 7.20103C41.546 7.7815 41.7502 8.46403 41.7502 9.16224C41.7447 10.0936 41.3763 10.985 40.7253 11.6422C40.0743 12.2993 39.1935 12.6688 38.275 12.6702V12.6913Z" fill="#fff" />
    <path class="c-logo__letter" d="M50.1201 3.89258H44.9281V14.4746H50.1462C50.8267 14.4762 51.5006 14.3393 52.128 14.0721C52.7554 13.8049 53.3236 13.4128 53.7989 12.919C53.9085 12.8079 54.0128 12.7021 54.1015 12.6016C54.7363 11.8309 55.1417 10.893 55.2704 9.89742C55.399 8.90184 55.2456 7.8897 54.8281 6.97922C54.4106 6.06874 53.7462 5.29751 52.9126 4.75563C52.0789 4.21375 51.1104 3.92358 50.1201 3.91903V3.89258ZM50.1201 12.7074H46.6448V5.64919H50.1201C50.5772 5.64919 51.0298 5.74047 51.452 5.91783C51.8743 6.09518 52.258 6.35513 52.5812 6.68284C52.9044 7.01055 53.1607 7.39959 53.3357 7.82776C53.5106 8.25593 53.6006 8.71484 53.6006 9.17829C53.6006 9.64174 53.5106 10.1006 53.3357 10.5288C53.1607 10.957 52.9044 11.346 52.5812 11.6737C52.258 12.0014 51.8743 12.2614 51.452 12.4388C51.0298 12.6161 50.5772 12.7074 50.1201 12.7074Z" fill="#fff" />
    <path class="c-logo__letter" d="M57.2377 14.4479L60.5668 7.8394L63.896 14.4479H65.8371L64.9239 12.6489L60.5668 3.97168L55.2965 14.4479H57.2377Z" fill="#fff" />
    <path class="c-logo__letter" d="M68.4409 11.321V3.91357H66.7085V11.1464C66.7066 11.6551 66.8228 12.1572 67.0477 12.612C67.3635 13.2759 67.8887 13.814 68.5401 14.1411C68.9886 14.3691 69.4838 14.4869 69.9855 14.485H75.2715V12.7284H69.8029C69.4526 12.6839 69.1275 12.5206 68.8802 12.2651C68.633 12.0096 68.4782 11.6769 68.4409 11.321Z" fill="#fff" />
    <path class="c-logo__letter" d="M78.4911 14.4479L81.8202 7.8394L85.1442 14.4479H87.0853L86.1774 12.6489L81.8202 3.97168L76.5499 14.4479H78.4911Z" fill="#fff" />
    <path class="c-logo__letter" d="M88.3533 14.4638H90.0805V7.59083L90.211 7.69136L98.7739 14.3845V3.89242L97.0415 3.88184V10.7972L96.9163 10.6967L88.3533 4.00882V14.4638Z" fill="#fff" />
    <path class="c-logo__letter" d="M105.792 3.89258H100.574V14.4746H105.792C106.473 14.4756 107.146 14.3384 107.774 14.0713C108.401 13.8041 108.969 13.4124 109.445 12.919C109.56 12.8026 109.654 12.7021 109.742 12.6016C110.377 11.8312 110.782 10.8938 110.911 9.89873C111.04 8.90363 110.887 7.89188 110.47 6.98159C110.053 6.0713 109.39 5.30001 108.557 4.75774C107.724 4.21547 106.756 3.92458 105.766 3.91903L105.792 3.89258ZM105.792 12.7074H102.312V5.64919H105.792C106.715 5.64919 107.601 6.02101 108.253 6.68284C108.906 7.34468 109.273 8.24232 109.273 9.17829C109.273 10.1143 108.906 11.0119 108.253 11.6737C107.601 12.3356 106.715 12.7074 105.792 12.7074Z" fill="#fff" />
    <path class="c-logo__sign" d="M0.0365295 8.24149C0.0782746 4.71768 3.39179 0.595991 8.03592 0.204457C13.348 -0.239988 16.8285 3.76001 17.3555 6.7653L14.809 4.84467L13.4002 6.09864C12.5757 5.23091 11.7564 4.39493 10.9685 3.53779L10.6293 3.178L10.2484 3.51662C7.52228 5.96079 4.18024 7.58921 0.594869 8.22033C0.474852 8.22033 0.349619 8.25208 0.229602 8.25737C0.164929 8.25734 0.100362 8.25202 0.0365295 8.24149Z" fill="#fff" />
    <path class="c-logo__sign" d="M17.1937 12.4588C15.597 15.9085 13.0453 17.9244 9.32999 18.1519C5.92255 18.3583 3.29262 16.8503 1.388 13.972C1.86285 14.0725 2.3377 14.2048 2.81777 14.2736C4.82622 14.5125 6.8601 14.1618 8.67772 13.263C10.2255 12.4703 11.8885 11.9344 13.6036 11.6757C14.854 11.4985 16.1258 11.7759 17.1937 12.4588Z" fill="#fff" />
    <path class="c-logo__sign" d="M0.0156748 10.0563C3.93971 9.63299 7.36802 7.9769 10.5459 5.58008L13.3271 8.53246L14.8926 7.0986C15.8005 7.78643 16.7085 8.45309 17.5903 9.15151C17.6955 9.28022 17.7478 9.44505 17.7364 9.61183C17.7364 9.93987 17.679 10.2679 17.6425 10.633C17.1207 10.4637 16.6667 10.2732 16.1866 10.1568C14.0994 9.6277 12.0904 10.0404 10.1284 10.7653C8.79778 11.2573 7.51934 11.8817 6.15219 12.2891C5.27154 12.5884 4.33772 12.6923 3.41401 12.5937C2.4903 12.4951 1.59828 12.1963 0.798394 11.7176C0.507069 11.5652 0.272898 11.3203 0.131585 11.0204C-0.00972846 10.7204 -0.0504326 10.3819 0.0156748 10.0563Z" fill="#fff" />
  </g>
  <defs>
    <clipPath id="clip0_10064_1347">
      <rect width="111" height="18" fill="white" transform="translate(0 0.172852)" />
    </clipPath>
  </defs>
</svg>
